# xmcd
#
# Track frame offsets:
#	150
#	17687
#	43012
#	60500
#	77027
#	93787
#	111312
#	128762
#	148972
#	168792
#	185005
#	203737
#	223795
#	238520
#	255717
#	271125
#	288955
#
# Disc length: 4052 seconds
#
# Revision: 1
# Processed by: cddbd v1.5.1PL0 Copyright (c) Steve Scherf et al.
# Submitted via: EasyCDDAExtractor 6.5.7.1
#
DISCID=f10fd211
DTITLE=Various Artist - Querência do Bugio
DYEAR=1900
DGENRE=Gaúchas
TTITLE0=Luiz C. Ranoff - Dançando um Bugio
TTITLE1=Gujo Teixeira - Pela Lágrima
TTITLE2=Flávio Saldanha - Dois Bugios
TTITLE3=José R. da Rosa - A Magia das milongas
TTITLE4=Adão Silva - Agro-Boy
TTITLE5=Nenito Sarturi - Pra nosso Amor
TTITLE6=Salvador Lamberti - Bogio do Jaguari Grande
TTITLE7=Mauro Marques - Todas as Máscaras
TTITLE8=Salvador Lamberti - A Gaita do Romalino
TTITLE9=Carlos Gomes - Ao Sul de Ti
TTITLE10=Emir Peres - No Rio do Bugio
TTITLE11=Sérgio Tarouco - Coração Tapera
TTITLE12=Flávio Saldanha - Regresso
TTITLE13=João Fereira - Bailanta do Quirino
TTITLE14=Gerson Berger - Baile no Carlos Pinto
TTITLE15=Antônio Ornes - O Rio da minha infância
TTITLE16=Flávio Saldanha - Bugio da Querência
EXTD=
EXTT0=
EXTT1=
EXTT2=
EXTT3=
EXTT4=
EXTT5=
EXTT6=
EXTT7=
EXTT8=
EXTT9=
EXTT10=
EXTT11=
EXTT12=
EXTT13=
EXTT14=
EXTT15=
EXTT16=
PLAYORDER=
